<?xml version="1.0" encoding="UTF-8"?>
<svg version="1.1" xmlns="http://www.w3.org/2000/svg" width="24" height="24">
<path d="M0 0 C4.8239592 0.56092549 9.26828895 2.4739425 13.75 4.25 C14.52988281 4.53746094 15.30976563 4.82492188 16.11328125 5.12109375 C18.2138625 5.95767307 20.11215818 6.75453275 22 8 C23.015625 10.734375 23.015625 10.734375 23 13 C17.94822858 15.62262176 12.86386378 18.14536452 7.625 20.375 C6.83351563 20.71273438 6.04203125 21.05046875 5.2265625 21.3984375 C2.69799621 22.08159401 1.46937951 21.7134051 -1 21 C-1.02888146 17.68751813 -1.04675799 14.37506833 -1.0625 11.0625 C-1.07087891 10.11697266 -1.07925781 9.17144531 -1.08789062 8.19726562 C-1.09111328 7.29814453 -1.09433594 6.39902344 -1.09765625 5.47265625 C-1.10289307 4.64000244 -1.10812988 3.80734863 -1.11352539 2.94946289 C-1 1 -1 1 0 0 Z M1 3 C1.66 5.31 2.32 7.62 3 10 C5.31 10 7.62 10 10 10 C10 10.66 10 11.32 10 12 C7.69 12 5.38 12 3 12 C2.01 15.465 2.01 15.465 1 19 C7.61242722 17.17778624 13.80520671 14.94776396 20 12 C20 11.34 20 10.68 20 10 C17.2100561 8.82905995 14.41821403 7.66309073 11.625 6.5 C10.8309375 6.16613281 10.036875 5.83226562 9.21875 5.48828125 C8.45820313 5.17246094 7.69765625 4.85664062 6.9140625 4.53125 C6.2123291 4.23798828 5.5105957 3.94472656 4.78759766 3.64257812 C3.00291439 2.88724219 3.00291439 2.88724219 1 3 Z " fill="#9DA3AF" transform="translate(1,1)"/>
</svg>
